<!-- icon666.com - MILLIONS OF FREE VECTOR ICONS --><svg viewBox="0 0 64 64" xmlns="http://www.w3.org/2000/svg" xmlns:xlink="http://www.w3.org/1999/xlink"><linearGradient id="linear-gradient" gradientUnits="userSpaceOnUse" x1="3.4" x2="60.6" y1="32" y2="32"><stop offset="0" stop-color="#5bb4f6"></stop><stop offset=".61" stop-color="#2191e5"></stop><stop offset="1" stop-color="#007edb"></stop></linearGradient><g id="Layer_23" data-name="Layer 23"><path d="m50 3.4h-36a10.62 10.62 0 0 0 -10.6 10.6v36a10.62 10.62 0 0 0 10.6 10.6h36a10.62 10.62 0 0 0 10.6-10.6v-36a10.62 10.62 0 0 0 -10.6-10.6zm-1.82 46.48a8.89 8.89 0 0 1 -11.1 1.23 78.86 78.86 0 0 1 -24.19-24.19 8.89 8.89 0 0 1 1.23-11.1l2.17-2.17a4.37 4.37 0 0 1 6.18 0l3.11 3.11a4.94 4.94 0 0 1 .42 6.43l-1 1.33a2.63 2.63 0 0 0 .25 3.42l11.39 11.35a2.63 2.63 0 0 0 3.42.25l1.33-1a4.94 4.94 0 0 1 6.43.46c1.38 1.49 4 3.3 3.81 5.62.17 2.17-2.11 3.87-3.45 5.26z" fill="url(#linear-gradient)"></path></g></svg>